<?xml version="1.0" encoding="UTF-8"?><svg xmlns="http://www.w3.org/2000/svg" xmlns:xlink="http://www.w3.org/1999/xlink" viewBox="0 0 48 48" version="1.1"><g id="surface1"><path d="M6 10c0-2.21 1.79-4 4-4h28c2.21 0 4 1.79 4 4v28c0 2.21-1.79 4-4 4H10c-2.21 0-4-1.79-4-4z" fill="#FF5722"/><path d="M9 9v30h30V9zm14.691 22l-.761-2.91h-3.918L18.254 31h-3.04l4.442-14.219h2.63L26.757 31zm7.16 0h-2.773V20.434h2.774zm-.3-12.246c-.27.281-.637.422-1.098.422-.465 0-.828-.14-1.098-.422-.273-.281-.406-.633-.406-1.055 0-.43.137-.781.41-1.054.274-.274.637-.41 1.094-.41.453 0 .82.136 1.094.41.273.273.41.625.41 1.054 0 .422-.137.774-.406 1.055z" fill="#1C0802"/><path d="M19.64 25.695h2.657l-1.328-5.066z" fill="#1C0802"/></g><metadata><rdf:RDF xmlns:rdf="http://www.w3.org/1999/02/22-rdf-syntax-ns#" xmlns:rdfs="http://www.w3.org/2000/01/rdf-schema#" xmlns:dc="http://purl.org/dc/elements/1.1/"><rdf:Description about="https://iconscout.com/legal#licenses" dc:title="adobe,illustrator" dc:description="adobe,illustrator" dc:publisher="Iconscout" dc:date="2017-12-15" dc:format="image/svg+xml" dc:language="en"><dc:creator><rdf:Bag><rdf:li>Icons8</rdf:li></rdf:Bag></dc:creator></rdf:Description></rdf:RDF></metadata></svg>