<svg xmlns="http://www.w3.org/2000/svg" xmlns:xlink="http://www.w3.org/1999/xlink" width="37" height="37" version="1.1" viewBox="0 0 37 37"><title>dots-bg</title><desc>Created with Sketch.</desc><g id="Personal-2-dark" fill="none" fill-rule="evenodd" stroke="none" stroke-width="1" opacity=".1"><g id="about" fill="#FFF"><g transform="translate(-261.000000, -990.000000) translate(261.000000, 990.000000)"><g id="section-title"><g id="dots-bg"><rect id="Rectangle" width="4" height="4" x="0" y="0" rx="2"/><rect id="Rectangle-Copy" width="4" height="4" x="11" y="0" rx="2"/><rect id="Rectangle-Copy-2" width="4" height="4" x="22" y="0" rx="2"/><rect id="Rectangle-Copy-3" width="4" height="4" x="33" y="0" rx="2"/><rect id="Rectangle-Copy-7" width="4" height="4" x="0" y="11" rx="2"/><rect id="Rectangle-Copy-6" width="4" height="4" x="11" y="11" rx="2"/><rect id="Rectangle-Copy-5" width="4" height="4" x="22" y="11" rx="2"/><rect id="Rectangle-Copy-4" width="4" height="4" x="33" y="11" rx="2"/><rect id="Rectangle-Copy-15" width="4" height="4" x="0" y="22" rx="2"/><rect id="Rectangle-Copy-14" width="4" height="4" x="11" y="22" rx="2"/><rect id="Rectangle-Copy-13" width="4" height="4" x="22" y="22" rx="2"/><rect id="Rectangle-Copy-12" width="4" height="4" x="33" y="22" rx="2"/><rect id="Rectangle-Copy-11" width="4" height="4" x="0" y="33" rx="2"/><rect id="Rectangle-Copy-10" width="4" height="4" x="11" y="33" rx="2"/><rect id="Rectangle-Copy-9" width="4" height="4" x="22" y="33" rx="2"/><rect id="Rectangle-Copy-8" width="4" height="4" x="33" y="33" rx="2"/></g></g></g></g></g></svg>