<?xml version="1.0"?>
<svg xmlns="http://www.w3.org/2000/svg" xmlns:xlink="http://www.w3.org/1999/xlink" xmlns:svgjs="http://svgjs.com/svgjs" version="1.1" width="512" height="512" x="0" y="0" viewBox="0 0 512 512" style="enable-background:new 0 0 512 512" xml:space="preserve" class=""><g>
<path xmlns="http://www.w3.org/2000/svg" style="" d="M480,0H32C14.368,0,0,14.368,0,32v448c0,17.664,14.368,32,32,32h448c17.664,0,32-14.336,32-32V32  C512,14.368,497.664,0,480,0z" fill="#444444" data-original="#1976d2" class=""/>
<path xmlns="http://www.w3.org/2000/svg" style="" d="M352,416c-17.024,0-33.088-6.624-45.184-18.688c-6.272-6.24-6.272-16.384-0.064-22.624  c6.24-6.304,16.384-6.24,22.624-0.064C335.424,380.672,343.456,384,352,384c17.664,0,32-14.336,32-32s-14.336-32-32-32  c-35.296,0-64-28.704-64-64s28.704-64,64-64c17.056,0,33.12,6.656,45.216,18.688c6.24,6.24,6.24,16.384,0,22.624  c-6.24,6.272-16.384,6.24-22.624,0.032C368.576,227.328,360.544,224,352,224c-17.664,0-32,14.368-32,32s14.336,32,32,32  c35.296,0,64,28.704,64,64S387.296,416,352,416z" fill="#ffffff" data-original="#90caf9" class=""/>
<path xmlns="http://www.w3.org/2000/svg" style="" d="M112,448c-8.832,0-16-7.168-16-16V80c0-8.832,7.168-16,16-16h80c52.928,0,96,43.072,96,96  s-43.072,96-96,96h-64v176C128,440.832,120.832,448,112,448z M128,224h64c35.296,0,64-28.704,64-64s-28.704-64-64-64h-64V224z" fill="#ffffff" data-original="#bbdefb" class=""/>
<g xmlns="http://www.w3.org/2000/svg">
</g>
<g xmlns="http://www.w3.org/2000/svg">
</g>
<g xmlns="http://www.w3.org/2000/svg">
</g>
<g xmlns="http://www.w3.org/2000/svg">
</g>
<g xmlns="http://www.w3.org/2000/svg">
</g>
<g xmlns="http://www.w3.org/2000/svg">
</g>
<g xmlns="http://www.w3.org/2000/svg">
</g>
<g xmlns="http://www.w3.org/2000/svg">
</g>
<g xmlns="http://www.w3.org/2000/svg">
</g>
<g xmlns="http://www.w3.org/2000/svg">
</g>
<g xmlns="http://www.w3.org/2000/svg">
</g>
<g xmlns="http://www.w3.org/2000/svg">
</g>
<g xmlns="http://www.w3.org/2000/svg">
</g>
<g xmlns="http://www.w3.org/2000/svg">
</g>
<g xmlns="http://www.w3.org/2000/svg">
</g>
</g></svg>
